<svg width="355" height="94" viewBox="0 0 355 94" fill="none" xmlns="http://www.w3.org/2000/svg">
<path d="M343.543 57.7848L335.375 65.953C327.655 73.6726 315.131 73.6726 307.411 65.953L299.243 57.7848L299.312 57.7158L307.48 49.5476C315.2 41.8279 327.724 41.8279 335.444 49.5476L343.552 57.7848H343.543Z" fill="#004883"/>
<path d="M354.715 21.6274V0.503906H333.592C313.624 0.503906 297.435 16.6937 297.435 36.6613V55.9476L305.43 47.9519C314.28 39.1023 328.684 39.1023 337.542 47.9519L340.19 50.5999C349.014 44.0101 354.724 33.4786 354.724 21.6187" fill="#A9AC2B"/>
<path d="M51.5317 60.587V78.6743C51.5317 79.8301 51.0573 80.3735 49.9015 80.3735H42.2164V60.9234C42.2164 57.111 39.7668 54.9374 36.4374 54.9374C33.108 54.9374 30.6584 57.111 30.6584 60.8544V78.6743C30.6584 79.8301 30.184 80.3735 29.0282 80.3735H21.343V60.9234C21.343 57.111 19.2385 54.9374 15.7021 54.9374C12.1657 54.9374 9.78509 57.111 9.78509 60.8544V78.6743C9.78509 79.8301 9.31069 80.3735 8.1549 80.3735H0.469727V60.518C0.469727 51.746 6.7921 46.6484 15.0897 46.6484C19.9889 46.6484 23.7926 48.5546 26.1042 51.4786C28.3468 48.5546 32.4956 46.6484 37.4638 46.6484C45.8994 46.6484 51.5403 51.746 51.5403 60.587H51.5317Z" fill="#004883"/>
<path d="M89.7601 61.8808C89.7601 63.442 89.5531 64.7358 89.2167 65.6242C88.8113 66.642 88.1299 66.918 86.6291 66.918H66.2302C66.5666 68.4102 67.248 69.4366 68.2744 70.3854C69.9046 71.8776 72.6302 72.766 76.2959 72.766C82.3509 72.766 84.4555 71.2048 85.7493 71.2048C86.2237 71.2048 86.4997 71.4808 86.6981 72.0846C87.1035 73.3784 87.6469 75.3449 87.6469 76.5697C87.6469 77.6565 87.1725 78.5449 85.4043 79.2177C83.1617 80.0975 79.6943 80.9169 75.6836 80.9169C69.0852 80.9169 64.0566 79.0797 60.7272 75.6123C57.9412 72.7573 56.4404 68.4705 56.4404 63.58C56.4404 53.2468 64.0566 46.6484 73.579 46.6484C83.1013 46.6484 89.7601 52.229 89.7601 61.8808ZM66.0232 60.38H80.8501C80.1687 56.4382 77.5897 53.9886 73.7773 53.9886C69.2232 53.9886 66.7736 56.3692 66.0232 60.38Z" fill="#004883"/>
<path d="M97.0158 77.7857C95.1096 75.8795 94.0918 73.2315 94.0918 68.8067V38.9544C94.0918 37.7296 94.5662 37.3242 95.791 37.3242H103.407V47.183H113.74C114.422 47.183 114.689 47.39 114.827 48.0024C114.965 48.8218 115.034 50.245 115.034 51.4008C115.034 52.962 114.896 53.9884 114.491 54.6611C114.085 55.3426 113.335 55.6789 111.843 55.6789H103.407V67.5819C103.407 69.4881 103.614 70.7129 104.356 71.3857C105.037 72.0671 106.124 72.4725 107.823 72.4725C110.204 72.4725 112.447 71.8601 114.146 71.3167C114.758 71.1097 115.025 71.0407 115.163 71.0407C115.5 71.0407 115.707 71.2477 115.914 71.6531C116.388 72.6018 116.863 73.8266 117.07 74.577C117.277 75.2584 117.346 75.8018 117.346 76.2762C117.346 77.432 116.664 78.1824 114.896 78.9932C112.516 80.08 109.324 80.8994 106.193 80.8994C102.113 80.8994 98.9134 79.6746 97.0158 77.7684V77.7857Z" fill="#004883"/>
<path d="M120.493 79.4247V59.2932C120.493 54.1956 121.985 51.3406 124.099 49.4344C126.341 47.5282 129.472 46.6484 133.207 46.6484C136.062 46.6484 138.106 46.9848 139.529 47.5972C140.823 48.1406 141.435 49.1584 141.435 50.7972C141.435 52.2894 141.228 53.6522 140.961 54.6096C140.823 55.153 140.418 55.429 139.736 55.291C138.58 55.084 137.019 54.8856 135.864 54.8856C133.483 54.8856 132.12 55.498 131.171 56.3174C130.292 57.1369 129.809 58.491 129.809 61.0786V80.3907H121.442C120.83 80.3907 120.493 80.1147 120.493 79.442V79.4247Z" fill="#004883"/>
<path d="M143.336 63.9172C143.336 53.7824 150.271 46.6406 161.018 46.6406C171.765 46.6406 178.562 53.7824 178.562 63.9172C178.562 74.0519 171.282 80.9177 161.156 80.9177C150.279 80.9177 143.336 73.7759 143.336 63.9172ZM169.108 63.7792C169.108 57.8622 165.71 54.6018 161.087 54.6018C156.464 54.6018 152.789 57.8622 152.789 63.7792C152.789 69.6961 156.326 72.9565 161.018 72.9565C165.71 72.9565 169.108 69.6961 169.108 63.7792Z" fill="#004883"/>
<path d="M216.626 62.7606V77.9929C216.626 82.8231 215.471 86.6959 213.021 89.2145C210.235 92.0695 206.017 93.5013 199.557 93.5013C196.702 93.5013 193.165 93.2339 190.854 92.6819C188.879 92.2075 187.93 91.3881 187.93 89.0765C187.93 87.9897 187.999 86.6269 188.266 85.6781C188.473 84.9277 188.879 84.4533 189.828 84.4533C190.845 84.4533 193.7 85.4021 198.461 85.4021C202.136 85.4021 204.516 84.7897 205.802 83.4269C206.957 82.3401 207.294 80.6409 207.294 78.2603V76.8975C205.25 79.2091 202.196 80.7099 198.116 80.7099C188.525 80.7099 182.746 73.9131 182.746 63.9854C182.746 53.1778 189.75 46.6484 200.29 46.6484C205.12 46.6484 209.812 48.2786 212.598 51.2026C215.186 53.8506 216.609 57.663 216.609 62.7606H216.626ZM207.311 63.511V63.2436C207.311 57.87 204.456 55.084 200.031 55.084C195.606 55.084 192.208 57.6716 192.208 63.994C192.208 69.3676 194.856 72.766 199.893 72.766C204.93 72.766 207.302 69.2986 207.302 63.5196L207.311 63.511Z" fill="#004883"/>
<path d="M220.842 70.1007C220.842 67.1767 221.859 64.7271 223.559 63.028C225.801 60.7854 229.683 59.828 235.048 59.828C237.359 59.828 240.49 60.035 243.345 60.3714V59.2846C243.345 57.5164 243.009 56.4986 242.12 55.8862C241.034 55.1358 238.989 54.7304 235.186 54.7304C229.614 54.7304 226.819 55.7482 225.534 55.7482C224.783 55.7482 224.447 55.4118 224.309 54.7304C224.102 53.8506 224.042 52.3498 224.042 51.47C224.042 49.2274 224.792 48.1406 226.897 47.5972C228.941 47.0538 232.538 46.6484 236.074 46.6484C242.672 46.6484 246.752 47.8732 249.331 50.2538C251.712 52.4964 252.66 55.6274 252.66 61.1304V74.9999C252.66 77.1735 251.979 78.1999 250.211 78.8727C247.149 80.0285 241.775 80.9169 236.272 80.9169C225.12 80.9169 220.833 76.6991 220.833 70.1094L220.842 70.1007ZM241.991 72.8263C243.009 72.5503 243.354 72.3519 243.354 71.6705V66.573H235.194C232.408 66.573 230.235 67.1854 230.235 69.773C230.235 72.0156 231.865 73.3784 236.557 73.3784C238.463 73.3784 240.43 73.2404 242 72.835L241.991 72.8263Z" fill="#004883"/>
<path d="M260.134 79.0805C258.366 78.2611 257.547 77.1053 257.547 75.3371C257.547 74.2503 257.754 72.6891 258.09 71.8697C258.427 71.0503 258.772 70.6449 259.582 70.6449C261.282 70.6449 264.818 72.9565 270.528 72.9565C274.202 72.9565 275.695 72.0077 275.695 70.2395C275.695 65.6854 258.22 69.9722 258.22 57.2498C258.22 50.177 263.662 46.6406 272.503 46.6406C276.178 46.6406 278.895 47.253 280.801 48.0724C282.431 48.7538 283.112 49.5646 283.112 51.5398C283.112 52.4886 282.974 53.9204 282.638 54.9382C282.431 55.5506 282.164 55.887 281.413 55.887C280.119 55.887 276.721 54.5932 272.503 54.5932C268.898 54.5932 267.544 55.4126 267.544 57.1118C267.544 61.804 285.088 57.1118 285.088 69.9635C285.088 76.8983 280.128 80.9091 270.537 80.9091C265.844 80.9091 262.17 80.0293 260.134 79.0719V79.0805Z" fill="#004883"/>
</svg>
